<svg width="35" height="35" viewBox="0 0 35 35" fill="none" xmlns="http://www.w3.org/2000/svg">
<mask id="mask0_1173_772" style="mask-type:luminance" maskUnits="userSpaceOnUse" x="0" y="0" width="35" height="35">
<path d="M0 0H35V35H0V0Z" fill="white"/>
</mask>
<g mask="url(#mask0_1173_772)">
<path d="M17.3256 34.9999C26.9585 34.9999 34.7675 27.1909 34.7675 17.5581C34.7675 7.9252 26.9585 0.116211 17.3256 0.116211C7.69278 0.116211 -0.116211 7.9252 -0.116211 17.5581C-0.116211 27.1909 7.69278 34.9999 17.3256 34.9999Z" fill="#96989A"/>
<path d="M24.535 14.9999C25.2327 14.9999 25.8141 15.2324 26.163 15.465H26.0467V15.3487H25.9304H25.8141V15.2324H25.6978H25.5816H25.4653V15.1161H25.349H25.2327H25.1164H25.0002L24.8839 14.9999H24.7676H24.6513H24.535ZM12.2095 25.9301V26.0464H25.8141C26.7443 26.0464 27.3257 26.2789 27.7909 26.6278C28.256 26.9766 28.4885 27.558 28.4885 28.1394C28.4885 28.7208 28.256 29.1859 27.7909 29.5347C27.3257 29.8836 26.7443 30.1161 25.8141 30.1161H10.0002C8.72109 30.1161 7.79086 29.8836 7.32574 29.4185C6.74435 28.8371 6.39551 28.1394 6.39551 26.9766V26.2789C8.95365 23.9534 12.2095 25.9301 12.2095 25.9301ZM6.86062 6.16265C7.09318 5.69754 7.44202 5.46498 7.90714 5.23242H7.79086C7.32574 5.46498 7.09318 5.81382 6.86062 6.16265ZM27.442 8.25568C26.9769 8.60452 26.3955 8.83707 25.4653 8.83707H25.5816H25.6978H25.8141H25.9304V8.72079H26.0467H26.163H26.2792H26.3955H26.5118V8.60452H26.6281H26.7443H26.8606V8.48824H26.9769H27.0932V8.37196H27.2095H27.3257V8.25568H27.442Z" fill="#E6E7E8" stroke="#E6E7E8" stroke-width="0.232558" stroke-miterlimit="22.9256"/>
<path d="M25.349 8.83728H12.2095V15.0001H24.3025C25.5816 15.0001 26.9769 15.4652 26.9769 16.9768C26.9769 17.4419 26.7443 18.0233 26.2792 18.3722C25.8141 18.721 25.2327 18.8373 24.3025 18.8373H12.2095V25.9303C12.2095 25.9303 8.95365 23.9536 6.39551 26.2791V8.02332C6.39551 5.58146 7.79086 4.88379 10.0002 4.88379H25.349C26.2792 4.88379 26.9769 5.00007 27.442 5.34891C27.7909 5.81402 28.0234 6.27914 28.0234 6.86053C28.0234 8.37216 26.6281 8.83728 25.349 8.83728Z" fill="#FEFEFE" stroke="#FEFEFE" stroke-width="0.232558" stroke-miterlimit="22.9256"/>
<path d="M25.349 8.83728H12.2095V15.0001H24.3025C25.5816 15.0001 26.9769 15.4652 26.9769 16.9768C26.9769 17.4419 26.7443 18.0233 26.2792 18.3722C25.8141 18.721 25.2327 18.8373 24.3025 18.8373H12.442C10.5816 17.6745 8.02341 17.6745 6.39551 19.3024V8.02332C6.39551 5.58146 7.79086 4.88379 10.0002 4.88379H25.349C26.2792 4.88379 26.9769 5.00007 27.442 5.34891C27.7909 5.81402 28.0234 6.27914 28.0234 6.86053C28.0234 8.37216 26.6281 8.83728 25.349 8.83728Z" fill="#D2D3D5" stroke="#D2D3D5" stroke-width="0.232558" stroke-miterlimit="22.9256"/>
<path d="M25.349 8.83728H12.2095V14.6512C10.349 13.3722 8.02341 13.721 6.39551 15.0001V8.02332C6.39551 5.58146 7.79086 4.88379 10.0002 4.88379H25.349C26.2792 4.88379 26.9769 5.00007 27.442 5.34891C27.7909 5.81402 28.0234 6.27914 28.0234 6.86053C28.0234 8.37216 26.6281 8.83728 25.349 8.83728Z" fill="#E6E7E8" stroke="#E6E7E8" stroke-width="0.232558" stroke-miterlimit="22.9256"/>
<path d="M25.3486 8.83728H12.5579C13.6044 7.32565 13.1393 5.81402 12.0928 4.88379H25.3486C26.2788 4.88379 26.9765 5.00007 27.4416 5.34891C27.7904 5.81402 28.023 6.27914 28.023 6.86053C28.023 8.37216 26.6277 8.83728 25.3486 8.83728Z" fill="#FEFEFE" stroke="#FEFEFE" stroke-width="0.232558" stroke-miterlimit="22.9256"/>
</g>
</svg>
