<svg width="35" height="35" viewBox="0 0 35 35" fill="none" xmlns="http://www.w3.org/2000/svg">
<mask id="mask0_1173_786" style="mask-type:luminance" maskUnits="userSpaceOnUse" x="0" y="0" width="35" height="35">
<path d="M0 0H35V35H0V0Z" fill="white"/>
</mask>
<g mask="url(#mask0_1173_786)">
<path d="M17.5714 35.1429C27.2759 35.1429 35.1429 27.2759 35.1429 17.5714C35.1429 7.867 27.2759 0 17.5714 0C7.867 0 0 7.867 0 17.5714C0 27.2759 7.867 35.1429 17.5714 35.1429Z" fill="#96989A"/>
<path d="M16.2857 16.1431H20C20.8571 16.1431 21.5714 16.0002 22 15.4288C22.5714 15.0002 22.8571 14.2859 22.8571 13.5716V12.4288C22.8571 11.7145 22.5714 11.2859 22 10.8574C21.7143 10.5716 21.4286 10.4288 21 10.4288C21.4286 10.0002 21.8571 9.57164 22.1429 9.00021C22.4286 8.00021 22.4286 7.00021 21.8571 6.14307C23.5714 6.42878 24.8571 6.85735 26 7.7145C27.4286 8.7145 28.1429 10.1431 28.1429 11.8574V13.5716C28.1429 14.4288 28 15.1431 27.5714 15.8574C27.2857 16.2859 26.8571 16.7145 26.4286 17.1431L21.7143 20.1431H21.5714H16C17 19.0002 17.1429 17.4288 16.2857 16.1431Z" fill="#F6543B"/>
<path d="M14.5714 16.1431H20C20.8571 16.1431 21.5714 16.0002 22 15.4288C22.5714 15.0002 22.8571 14.2859 22.8571 13.5716V12.4288C22.8571 11.7145 22.5714 11.2859 22 10.8574C21.7143 10.5716 21.4286 10.4288 21 10.4288C21.4286 10.0002 21.8571 9.57164 22.1429 9.00021C22.4286 8.00021 22.4286 7.00021 21.8571 6.14307C23.5714 6.42878 24.8571 6.85735 26 7.7145C27.4286 8.7145 28.1429 10.1431 28.1429 11.8574V13.5716C28.1429 14.4288 28 15.1431 27.5714 15.8574C27.2857 16.2859 26.8571 16.7145 26.4286 17.1431L21.7143 20.1431H21.5714H14.4286C12.5714 20.1431 12.4286 16.2859 14.5714 16.1431Z" fill="#FEFEFE"/>
<path d="M6.57129 10.2859V6.14307H19.9999C20.7141 6.14307 21.2856 6.14307 21.857 6.14307C23.7141 6.28592 23.2856 10.7145 20.9999 10.4288C20.7141 10.2859 20.2856 10.2859 19.857 10.2859H11.857L9.57129 13.0002L6.57129 10.2859Z" fill="#E6E7E8"/>
<path d="M10.2856 30.4284C9.28557 30.4284 8.28557 30.1426 7.57129 29.5712C6.857 28.8569 6.57129 28.1426 6.57129 27.1426V19.8569C8.14272 21.2855 10.4284 21.4284 11.857 20.1426V26.2855H19.5713C18.5713 27.4284 18.4284 29.1426 19.4284 30.4284H10.2856Z" fill="#FEFEFE"/>
<path d="M17.2861 26.2859H21.0004C22.1433 26.2859 23.0004 26.0001 23.5718 25.7144C24.2861 25.2859 24.5718 24.7144 24.5718 24.0001V22.4287C24.5718 21.7144 24.2861 21.143 23.7147 20.7144C23.2861 20.4287 22.5718 20.143 21.7147 20.143C20.7147 17.8573 24.429 16.7144 25.7147 17.4287V17.5716C27.0004 17.8573 28.0004 18.5716 28.7147 19.4287C29.5718 20.2859 29.8576 21.2859 29.8576 22.4287V24.143C29.8576 26.143 29.1433 27.5716 27.5718 28.7144C26.0004 29.8573 24.0004 30.4287 21.429 30.4287H17.5718C18.0004 30.0001 18.1433 29.4287 18.2861 28.8573C18.2861 27.8573 18.0004 27.0001 17.2861 26.2859Z" fill="#D2D3D5"/>
<path d="M6.57129 19.8574V10.1431C7.57129 11.1431 9.14272 11.4288 10.5713 11.0002C11.1427 10.8574 11.5713 10.5716 11.857 10.2859V16.1431H15.2856C16.1427 17.4288 15.9999 19.0002 14.9999 20.1431H11.857C10.4284 21.4288 8.14272 21.2859 6.57129 19.8574Z" fill="#E6E8EB"/>
</g>
</svg>
